<svg width="30" height="30" viewBox="0 0 30 30" fill="none" xmlns="http://www.w3.org/2000/svg">
<path d="M20.1749 3.69999L8.8874 7.44999C1.2999 9.98749 1.2999 14.125 8.8874 16.65L12.2374 17.7625L13.3499 21.1125C15.8749 28.7 20.0249 28.7 22.5499 21.1125L26.3124 9.83749C27.9874 4.77499 25.2374 2.01249 20.1749 3.69999ZM20.5749 10.425L15.8249 15.2C15.6374 15.3875 15.3999 15.475 15.1624 15.475C14.9249 15.475 14.6874 15.3875 14.4999 15.2C14.1374 14.8375 14.1374 14.2375 14.4999 13.875L19.2499 9.09999C19.6124 8.73749 20.2124 8.73749 20.5749 9.09999C20.9374 9.46249 20.9374 10.0625 20.5749 10.425Z" fill="white"/>
</svg>
